<?xml version="1.0" encoding="utf-8"?>
<!-- Generator: Adobe Illustrator 15.1.0, SVG Export Plug-In . SVG Version: 6.00 Build 0)  -->
<!DOCTYPE svg PUBLIC "-//W3C//DTD SVG 1.1//EN" "http://www.w3.org/Graphics/SVG/1.1/DTD/svg11.dtd">
<svg version="1.1" id="レイヤー_1" xmlns="http://www.w3.org/2000/svg" xmlns:xlink="http://www.w3.org/1999/xlink" x="0px"
	 y="0px" width="145px" height="30px" viewBox="-2.5 2.5 145 30" enable-background="new -2.5 2.5 145 30" xml:space="preserve">
<text transform="matrix(0.9994 -0.0349 0.0349 0.9994 102.4443 28.3857)" font-family="'ShinGoPr5-Regular-90ms-RKSJ-H'" font-size="27">i</text>
<polygon fill="none" points="-0.509,7.672 21.622,6.399 22.537,32.598 0.406,33.871 "/>
<g enable-background="new    ">
	
		<text transform="matrix(0.9994 -0.0349 0.0349 0.9994 1.5063 30.8408)" fill="#BF21BB" font-family="'ShinGoPr5-Regular-90ms-RKSJ-H'" font-size="27">C</text>
	
		<text transform="matrix(0.9994 -0.0349 0.0349 0.9994 1.5063 30.8408)" font-family="'ShinGoPr5-Regular-90ms-RKSJ-H'" font-size="27">C</text>
</g>
<rect x="22.073" y="6.043" transform="matrix(-0.9994 0.0349 -0.0349 -0.9994 64.7521 37.1696)" fill="none" width="19.957" height="26.215"/>
<text transform="matrix(0.9994 -0.0349 0.0349 0.9994 20.3027 30.2549)" font-family="'ShinGoPr5-Regular-90ms-RKSJ-H'" font-size="27">o</text>
<rect x="39.756" y="7.232" transform="matrix(-0.9994 0.0349 -0.0349 -0.9994 108.7737 38.785)" fill="none" width="28.585" height="26.219"/>
<text transform="matrix(0.9994 -0.0349 0.0349 0.9994 35.1211 29.7021)" font-family="'ShinGoPr5-Regular-90ms-RKSJ-H'" font-size="27">m</text>
<rect x="65.077" y="6.348" transform="matrix(-0.9994 0.0349 -0.0349 -0.9994 159.3714 36.1339)" fill="none" width="28.586" height="26.219"/>
<text transform="matrix(0.9994 -0.0349 0.0349 0.9994 59.0933 28.8652)" font-family="'ShinGoPr5-Regular-90ms-RKSJ-H'" font-size="27">u</text>
<rect x="79.364" y="5.85" transform="matrix(-0.9994 0.0349 -0.0349 -0.9994 187.9161 34.6379)" fill="none" width="28.584" height="26.219"/>
<text transform="matrix(0.9994 -0.0349 0.0349 0.9994 73.8271 28.3506)" font-family="'ShinGoPr5-Regular-90ms-RKSJ-H'" font-size="27">p</text>
<rect x="93.839" y="3.386" transform="matrix(-0.9994 0.0349 -0.0349 -0.9994 216.7724 29.2026)" fill="none" width="28.584" height="26.215"/>
<rect x="107.931" y="4.922" transform="matrix(-0.9994 0.0349 -0.0349 -0.9994 240.9505 31.8586)" fill="none" width="24.532" height="26.219"/>
<rect x="112.507" y="4.843" transform="matrix(-0.9994 0.0349 -0.0349 -0.9994 245.5225 31.6193)" fill="none" width="19.956" height="26.219"/>
<text transform="matrix(0.9994 -0.0349 0.0349 0.9994 110.5684 27.0674)" font-family="'ShinGoPr5-Regular-90ms-RKSJ-H'" font-size="27">f</text>
<polygon fill="none" points="122.164,8.8 139.922,8.68 140.837,34.881 123.078,35 "/>
<text transform="matrix(0.9994 -0.0349 0.0349 0.9994 121.3721 26.6904)" font-family="'ShinGoPr5-Regular-90ms-RKSJ-H'" font-size="27">y</text>
<text transform="matrix(0.9994 -0.0349 0.0349 0.9994 90.6494 27.7285)" font-family="'ShinGoPr5-Regular-90ms-RKSJ-H'" font-size="27">t</text>
<ellipse transform="matrix(-0.035 -0.9994 0.9994 -0.035 6.4598 52.0298)" cx="28.351" cy="22.896" rx="3.086" ry="2.705"/>
<ellipse transform="matrix(-0.0349 -0.9994 0.9994 -0.0349 63.6633 103.4266)" cx="81.772" cy="20.973" rx="2.521" ry="1.848"/>
<ellipse transform="matrix(-0.0348 -0.9994 0.9994 -0.0348 101.3801 112.6513)" fill="#FFFFFF" stroke="#000000" stroke-width="2" stroke-miterlimit="10" cx="105.089" cy="7.37" rx="2.891" ry="2.857"/>
</svg>
